<?xml version="1.0" encoding="utf-8"?>
<!-- Generator: Adobe Illustrator 23.0.6, SVG Export Plug-In . SVG Version: 6.00 Build 0)  -->
<svg version="1.1" id="Layer_1" xmlns="http://www.w3.org/2000/svg" xmlns:xlink="http://www.w3.org/1999/xlink" x="0px" y="0px"
	 viewBox="0 0 1215.1 664.7" style="enable-background:new 0 0 1215.1 664.7;" xml:space="preserve">
<style type="text/css">
	.st0{fill:#FF6A4A;}
</style>
<g>
	<path class="st0" d="M443,501.2c9.9-50.5,19.7-99.4,29.1-148.7c21.7-114.3,43.3-228.8,64.8-343.4c1.1-5.7,2.2-8.1,5-8.1
		c25.7,0.2,51.5,0.2,77.2,0.1c2.7,0,4.7,0.6,3.5,9.3c-3.5,1.1-7.2,1.6-10.8,3.3c-16.7,7.9-26.5,34.1-27.7,76.2
		c-1.1,34.9-1.9,69.9-2,104.9c-0.4,93-0.4,186-0.3,279c0,34.3,0.8,68.6,1.1,102.9c0.3,32.8,8.2,53.3,20.3,65.4
		c6.8,6.8,14.3,10.2,21.8,15.4c0.4,6.7,0.4,6.8-3.7,6.9c-18.2,0.1-36.4,0-54.6,0c-23.9,0-47.8,0-71.7,0c-1.7,0-3.4,0-5.1,0
		c-1.9-8.9,0.1-10,3.2-11.7c8-4.3,16.3-8,23.8-15.3c12.3-11.9,18.8-35.3,19.8-65.9c1-29.5,1.9-59.2,2-88.8
		c0.3-139.9,0.3-279.7,0.4-419.6c0-2.8-0.2-5.5-0.3-10.6c-1,3.3-1.5,4.8-1.8,6.4C505.4,223,473.7,386.9,442.2,551
		c-5.6,29.3-10.6,59.4-16,89c-0.6,3.2-1.8,5.8-2.8,8.7c-1-2.9-2.3-5.4-2.9-8.6c-27.2-143.8-54.3-287.8-81.6-431.6
		c-8.5-45.1-17.3-90-26-135c-0.3-1.5-0.7-3-1.6-6.7c-0.2,4.2-0.3,6-0.3,7.9c-0.3,134.5-0.7,268.9-0.8,403.4c0,28.2,0.6,56.5,2,84.5
		c2.3,47.7,12.6,73.8,32.6,85.9c3.6,2.2,7.3,3.1,10.8,5.6c1.3,0.9,2.3,4.4,3.5,6.7c-0.3,1-0.6,2-0.9,3c-34.3,0-68.6,0-102.9,0
		c-1.7-8,0.6-9.5,3.2-10.9c10.8-5.9,21-15,28.2-35.8c7.8-22.1,11.2-48.6,12.3-76.2c1.6-41.6,3-83.4,3.2-125.1
		c0.6-101.6,0.1-203.2,0.8-304.7c0.4-56.6-11.9-87.8-35.1-97.9c-4.4-1.9-4.4-2.1-3.8-11.9c1.4,0,2.9,0,4.4,0c25,0,49.9,0.2,74.9-0.2
		c3.4,0,5.1,2.3,6.5,9.7c30.1,159.6,60.3,319.1,90.5,478.6C441.3,492.9,442,496.3,443,501.2z"/>
	<path class="st0" d="M809.9,315.5c7.6,4.1,14.2,6.7,20.6,11.2c20.4,14.3,37.5,39.3,48.7,82.9c13.4,52.1,10.6,126.8-6.5,177.5
		c-14.5,43-33.9,65.6-56.8,71.8c-13.3,3.6-26.7,5.3-40.1,5.5c-46.2,0.6-92.5,0.2-138.7,0.2c-1.1,0-2.2,0.6-3.2-0.2
		c-0.9-0.8-1.7-2.9-2.5-4.4c0.7-1.9,1.2-4.9,2.1-5.5c4.1-3,8.3-4.9,12.4-8c3.1-2.3,6-5.3,8.9-8.6c8-9.1,13.4-23.2,14.2-44.4
		c1.2-32.7,2.7-65.4,2.9-98.2c0.6-97.2,0.8-194.5,0.6-291.8c-0.1-41.4-1.3-82.8-2.5-124.1c-1.4-46.2-12.9-61.6-29-66.7
		c-2.5-0.8-6.5,0.8-4.7-11.5c1.7,0,3.3,0,5,0c42.8,0,85.7-0.2,128.5,0.1c20.1,0.2,40,3.9,58.8,23c17.2,17.5,31.9,42.7,38.3,85.1
		c11.3,75.4,2.7,156-39.8,193.3C821.8,307.4,816.3,310.7,809.9,315.5z M716.3,333.7c0,8.4-0.1,16.9,0,25.4
		c0.6,76.5,0.8,153,1.9,229.4c0.5,34.8,9.4,55.3,24.2,59.6c16,4.7,32.1,2.8,47.7-6.4c36.8-21.8,57.2-98,49.2-181.9
		c-6.2-65.2-32.9-118.9-63.6-124.3c-19.2-3.4-38.5-2.1-57.7-2.8C717.6,332.6,717.1,333.1,716.3,333.7z M716.4,319.8
		c17.6-2.3,34.8-1.6,51.6-7.2c32.6-10.9,52.9-58.7,57.1-129.3c4.1-68.7-13.9-136.7-41.8-157.2c-18.2-13.3-36.9-14.9-55.7-9.5
		c-8.6,2.5-8.7-1.9-9.3,24.5c-0.9,37.8-1.5,75.6-1.7,113.5C716.1,208.5,716.4,262.4,716.4,319.8z"/>
	<path class="st0" d="M84.8,318c19.7-0.7,38.3,0.6,56.3-11.2c18-11.7,29.8-38.5,35.1-80.4c1.4-11.3,2.9-22.6,3.9-34.1
		c0.7-7.6,2.2-10.5,5.7-7.5c0,95.7,0,191.7,0,288.3c-3.1,2.7-4.6,1-5.9-7c-3.5-21.7-7-43.4-11.3-64.3c-8.7-42.2-24.2-61.7-43.5-65.7
		c-12.9-2.6-25.8-2.6-39.4-3.8c-0.4,12-1,22.5-0.9,33c0.5,71.8,1,143.7,1.7,215.5c0.1,8.5,0.9,17,1.4,25.5
		c1.3,20.2,6.6,31.3,15,35.8c15,8.1,30.2,9.6,45.5,7.8c12.4-1.5,24.9-3.7,37.1-9c22.4-9.7,38.9-41.7,52.4-82.3
		c7.7-23.1,14.5-47.9,21.9-72.6c0.9,0.5,2.1,1.3,3.9,2.5c-2.4,21.2-4.7,41.8-7,62.5c-3.9,34.9-8,69.7-11.7,104.7c-0.7,6.9-2,9.1-5,9
		c-78.3-0.2-156.6-0.1-234.9-0.3c-1.4,0-2.8-3.1-4.1-4.8c1.3-2.2,2.5-5,4-6.4c7.5-7.1,15.3-12.8,22.5-21c5.8-6.6,9-19.5,9.8-34.5
		c1.3-23.7,3.1-47.5,3.2-71.3c0.5-132.7,0.7-265.4,0.7-398.1c0-21.4-1-42.8-2-64.1c-1.2-24.6-7.8-38.9-17.7-45.3
		c-4.3-2.8-8.8-3.8-13.1-6.5c-1.4-0.9-2.5-4.4-3.8-6.6C6,4.2,7.3,1.4,8.6,1.4c70.6-0.2,141.2-0.2,211.8,0c1.4,0,3.7,2.7,4.2,5.4
		c8.8,48.3,17.4,96.9,26,145.4c-2.6,7.4-4.3,5.6-6.5-0.8c-10.9-31.2-22.8-59.9-36.1-85.8c-14.2-27.6-30.3-42.5-48.7-46.2
		c-22-4.4-44-6.4-66-2.1c-6.5,1.3-6.6,1.1-6.7,16.2c-0.6,76.1-1.1,152.3-1.7,228.4C84.7,280.1,84.8,298.3,84.8,318z"/>
	<path class="st0" d="M946.1,128.3c74.9,108.5,72,306.7,0.2,408C876.6,439.2,869.2,239.8,946.1,128.3z M945.9,141.2
		c-8,15.3-14,32.8-18.7,52.1c-15.6,64.2-18.7,132-12.5,201.8c4,44.8,12.3,85.8,27.3,120.2c1.3,3.1,2.8,5.8,4.2,8.5
		C992.1,435.9,992,226.4,945.9,141.2z"/>
	<path class="st0" d="M1052.5,664.5c-38.9-1.5-68.7-38.2-92.9-97.6c-6.4-15.7-6.4-16.2-0.1-32c24.1-60.4,54.7-95.6,93.2-97.1
		c25.9-1,49.2,17,70.1,48.5c11.1,16.8,20.3,37.7,28.8,59.8c0.7,1.8,0.8,6.2,0.2,7.9c-18.6,50.1-41.2,88.7-72,102.6
		C1070.9,660.6,1061.6,661.9,1052.5,664.5z M1146.5,551c-5.6-15.1-17-32-29.1-43.3c-27.9-26-57.1-32.5-87.2-24.3
		c-22.8,6.2-44,21.6-62.1,51.5c-2.9,4.8-5.5,10.5-8.2,15.8C1002.4,643.4,1102.6,645.5,1146.5,551z"/>
	<path class="st0" d="M1160.2,537.5c-70.9-99.3-76-299.7-0.3-407.9C1231.3,230.2,1235.5,428.7,1160.2,537.5z M1159.8,142.3
		c-48.5,96.2-42.4,306.9,0.7,381.7C1205.9,438.5,1206,226.5,1159.8,142.3z"/>
	<path class="st0" d="M954.9,115.4c49.6-146.5,145.8-155,199.2-1C1109.2,252.1,1011.8,277.4,954.9,115.4z M960.1,116.8
		c8.4,11.9,15.7,24.8,23.9,33.8c35.5,38.6,73,43.6,111.6,23.9c18.1-9.3,34.6-25.8,48.7-51.8c3.1-5.8,4.2-10.2,0.1-15.9
		c-7.5-10.3-14.4-23.1-22.4-31.1c-36.3-36.4-74.2-40.2-112.8-18.1C990.9,68,974.6,85.9,960.1,116.8z"/>
	<path class="st0" d="M947.4,392.6c-16.4,0.2-29.3-26-29.4-59.8c-0.1-33.1,13.1-60.5,29.2-60.5c16.2,0,29.3,26.7,29.5,60.1
		C976.8,365.7,963.8,392.4,947.4,392.6z"/>
	<path class="st0" d="M1082.7,549.1c0,33.5-13,59.6-29.5,59.5c-16.3-0.1-29.1-26.8-29-60.4c0.1-33.4,13.2-59.9,29.5-59.8
		C1069.8,488.5,1082.7,515.5,1082.7,549.1z"/>
	<path class="st0" d="M1161,273.6c16.3,0.1,29.4,26.6,29.5,59.9c0.2,33.4-13.2,60.2-29.9,60c-16.3-0.2-29.2-27.2-29-60.8
		C1131.9,299.9,1145,273.5,1161,273.6z"/>
	<path class="st0" d="M1054.7,172.8c-16,0.2-29.3-26.3-29.5-58.9c-0.2-33.8,12.9-61.2,29.3-61.3c16.3-0.1,29.2,26.3,29.4,60
		C1084.1,145.9,1071.2,172.6,1054.7,172.8z"/>
</g>
</svg>
